STARTFONT 2.1
COMMENT Copyright (C) 1994 Aleksei Rudnev <alex@kiae.su>
COMMENT Portions Copyright (C) 1994-1995 Cronyx Ltd.
COMMENT Changes Copyright (C) 1996-1997 by Andrey A. Chernov, Moscow, Russia.
COMMENT This software may be used, modified, copied, distributed, and sold,
COMMENT in both source and binary form provided that the copyright
COMMENT and these terms are retained. Under no circumstances is the author
COMMENT responsible for the proper functioning of this software, nor does
COMMENT the author assume any responsibility for damages incurred with its use.
COMMENT $XFree86: xc/fonts/bdf/cyrillic/koi12x24.bdf,v 3.1.4.1 1998/02/01 16:04:18 robin Exp $
FONT -Cronyx-Fixed-Medium-R-Normal--24-170-100-100-C-120-KOI8-R
SIZE 24 100 100
FONTBOUNDINGBOX 13 25 0 -3
STARTPROPERTIES 21
FONTNAME_REGISTRY ""
FOUNDRY "Cronyx"
FAMILY_NAME "Fixed"
WEIGHT_NAME "Medium"
SLANT "R"
SETWIDTH_NAME "Normal"
ADD_STYLE_NAME ""
PIXEL_SIZE 24
POINT_SIZE 170
RESOLUTION_X 100
RESOLUTION_Y 100
SPACING "C"
AVERAGE_WIDTH 120
CHARSET_REGISTRY "KOI8"
CHARSET_ENCODING "R"
DEFAULT_CHAR 32
FONT_DESCENT 3
FONT_ASCENT 22
COPYRIGHT "Copyright (C) 1994 Aleksei Rudnev <alex@kiae.su>, Portions Copyright (C) 1996-1997 by Andrey A. Chernov, Moscow, Russia."
_MULE_BASELINE_OFFSET -3
_XMBDFED_INFO "Edited with xmbdfed 2.7."
ENDPROPERTIES
CHARS 179
STARTCHAR 0
ENCODING 10
SWIDTH 390 0
DWIDTH 13 0
BBX 13 25 0 -3
BITMAP
0000
0600
0600
0600
0600
0600
0600
0600
0600
0600
0600
7FF8
7FF8
0600
0600
0600
0600
0600
0600
0600
0600
0600
0600
0600
0600
ENDCHAR
STARTCHAR 0
ENCODING 11
SWIDTH 390 0
DWIDTH 13 0
BBX 13 25 0 -3
BITMAP
0000
0600
0600
0600
0600
0600
0600
0600
0600
0600
0600
7E00
7E00
0000
0000
0000
0000
0000
0000
0000
0000
0000
0000
0000
0000
ENDCHAR
STARTCHAR 0
ENCODING 12
SWIDTH 390 0
DWIDTH 13 0
BBX 13 25 0 -3
BITMAP
0000
0000
0000
0000
0000
0000
0000
0000
0000
0000
0000
7E00
7E00
0600
0600
0600
0600
0600
0600
0600
0600
0600
0600
0600
0600
ENDCHAR
STARTCHAR 0
ENCODING 13
SWIDTH 390 0
DWIDTH 13 0
BBX 13 25 0 -3
BITMAP
0000
0000
0000
0000
0000
0000
0000
0000
0000
0000
0000
07F8
07F8
0600
0600
0600
0600
0600
0600
0600
0600
0600
0600
0600
0600
ENDCHAR
STARTCHAR 0
ENCODING 14
SWIDTH 390 0
DWIDTH 13 0
BBX 13 25 0 -3
BITMAP
0000
0600
0600
0600
0600
0600
0600
0600
0600
0600
0600
07F8
07F8
0000
0000
0000
0000
0000
0000
0000
0000
0000
0000
0000
0000
ENDCHAR
STARTCHAR 0
ENCODING 15
SWIDTH 390 0
DWIDTH 13 0
BBX 13 25 0 -3
BITMAP
0000
0600
0600
0600
0600
0600
0600
0600
0600
0600
0600
7FF8
7FF8
0600
0600
0600
0600
0600
0600
0600
0600
0600
0600
0600
0600
ENDCHAR
STARTCHAR 0
ENCODING 16
SWIDTH 390 0
DWIDTH 13 0
BBX 13 25 0 -3
BITMAP
0000
0000
0000
0000
0000
0000
0000
0000
0000
0000
0000
7FF8
7FF8
0000
0000
0000
0000
0000
0000
0000
0000
0000
0000
0000
0000
ENDCHAR
STARTCHAR 0
ENCODING 17
SWIDTH 390 0
DWIDTH 13 0
BBX 13 25 0 -3
BITMAP
0000
0000
0000
0000
0000
0000
0000
0000
0000
0000
0000
7FF8
7FF8
0000
0000
0000
0000
0000
0000
0000
0000
0000
0000
0000
0000
ENDCHAR
STARTCHAR 0
ENCODING 18
SWIDTH 390 0
DWIDTH 13 0
BBX 13 25 0 -3
BITMAP
0000
0000
0000
0000
0000
0000
0000
0000
0000
0000
0000
7FF8
7FF8
0000
0000
0000
0000
0000
0000
0000
0000
0000
0000
0000
0000
ENDCHAR
STARTCHAR 0
ENCODING 19
SWIDTH 390 0
DWIDTH 13 0
BBX 13 25 0 -3
BITMAP
0000
0000
0000
0000
0000
0000
0000
0000
0000
0000
0000
7FF8
7FF8
0000
0000
0000
0000
0000
0000
0000
0000
0000
0000
0000
0000
ENDCHAR
STARTCHAR 0
ENCODING 20
SWIDTH 390 0
DWIDTH 13 0
BBX 13 25 0 -3
BITMAP
0000
0000
0000
0000
0000
0000
0000
0000
0000
0000
0000
7FF8
7FF8
0000
0000
0000
0000
0000
0000
0000
0000
0000
0000
0000
0000
ENDCHAR
STARTCHAR 0
ENCODING 21
SWIDTH 390 0
DWIDTH 13 0
BBX 13 25 0 -3
BITMAP
0000
0600
0600
0600
0600
0600
0600
0600
0600
0600
0600
07F8
07F8
0600
0600
0600
0600
0600
0600
0600
0600
0600
0600
0600
0600
ENDCHAR
STARTCHAR 0
ENCODING 22
SWIDTH 390 0
DWIDTH 13 0
BBX 13 25 0 -3
BITMAP
0000
0600
0600
0600
0600
0600
0600
0600
0600
0600
0600
7E00
7E00
0600
0600
0600
0600
0600
0600
0600
0600
0600
0600
0600
0600
ENDCHAR
STARTCHAR 0
ENCODING 23
SWIDTH 390 0
DWIDTH 13 0
BBX 13 25 0 -3
BITMAP
0000
0600
0600
0600
0600
0600
0600
0600
0600
0600
0600
7FF8
7FF8
0000
0000
0000
0000
0000
0000
0000
0000
0000
0000
0000
0000
ENDCHAR
STARTCHAR 0
ENCODING 24
SWIDTH 390 0
DWIDTH 13 0
BBX 13 25 0 -3
BITMAP
0000
0000
0000
0000
0000
0000
0000
0000
0000
0000
0000
7FF8
7FF8
0600
0600
0600
0600
0600
0600
0600
0600
0600
0600
0600
0600
ENDCHAR
STARTCHAR 0
ENCODING 25
SWIDTH 390 0
DWIDTH 13 0
BBX 13 25 0 -3
BITMAP
0000
0600
0600
0600
0600
0600
0600
0600
0600
0600
0600
0600
0600
0600
0600
0600
0600
0600
0600
0600
0600
0600
0600
0600
0600
ENDCHAR
STARTCHAR C040
ENCODING 32
SWIDTH 390 0
DWIDTH 13 0
BBX 13 25 0 -3
BITMAP
0000
0000
0000
0000
0000
0000
0000
0000
0000
0000
0000
0000
0000
0000
0000
0000
0000
0000
0000
0000
0000
0000
0000
0000
0000
ENDCHAR
STARTCHAR !
ENCODING 33
SWIDTH 390 0
DWIDTH 13 0
BBX 13 25 0 -3
BITMAP
0000
0000
0000
0000
0000
0600
0600
0600
0600
0600
0600
0600
0600
0600
0600
0000
0000
0600
0F00
0600
0000
0000
0000
0000
0000
ENDCHAR
STARTCHAR "
ENCODING 34
SWIDTH 390 0
DWIDTH 13 0
BBX 13 25 0 -3
BITMAP
0000
0000
0000
0000
1980
1980
1980
1980
1980
0000
0000
0000
0000
0000
0000
0000
0000
0000
0000
0000
0000
0000
0000
0000
0000
ENDCHAR
STARTCHAR #
ENCODING 35
SWIDTH 390 0
DWIDTH 13 0
BBX 13 25 0 -3
BITMAP
0000
0000
0000
0000
0000
0CC0
0CC0
0CC0
3FE0
3FE0
1980
1980
1980
1980
7FC0
7FC0
3300
3300
3300
0000
0000
0000
0000
0000
0000
ENDCHAR
STARTCHAR $
ENCODING 36
SWIDTH 390 0
DWIDTH 13 0
BBX 13 25 0 -3
BITMAP
0000
0000
0000
0000
0000
0600
1F80
3FE0
6660
6600
3E00
1F80
07C0
0660
0660
6660
7FC0
3F80
0600
0000
0000
0000
0000
0000
0000
ENDCHAR
STARTCHAR %
ENCODING 37
SWIDTH 390 0
DWIDTH 13 0
BBX 13 25 0 -3
BITMAP
0000
0000
0000
0000
0000
38C0
7CC0
6D80
7D80
3B00
0300
0600
0600
0C00
0DC0
1BE0
1B60
33E0
31C0
0000
0000
0000
0000
0000
0000
ENDCHAR
STARTCHAR &
ENCODING 38
SWIDTH 390 0
DWIDTH 13 0
BBX 13 25 0 -3
BITMAP
0000
0000
0000
0000
0000
0700
0F80
1DC0
18C0
1980
0F80
1F00
3E00
7360
61E0
61C0
6180
3FE0
1E60
0000
0000
0000
0000
0000
0000
ENDCHAR
STARTCHAR '
ENCODING 39
SWIDTH 390 0
DWIDTH 13 0
BBX 13 25 0 -3
BITMAP
0000
0000
0000
0600
0F00
0F00
0300
0300
0600
0C00
0000
0000
0000
0000
0000
0000
0000
0000
0000
0000
0000
0000
0000
0000
0000
ENDCHAR
STARTCHAR (
ENCODING 40
SWIDTH 390 0
DWIDTH 13 0
BBX 13 25 0 -3
BITMAP
0000
0000
0000
0000
0000
0180
0300
0700
0600
0E00
0C00
0C00
0C00
0C00
0E00
0600
0700
0300
0180
0000
0000
0000
0000
0000
0000
ENDCHAR
STARTCHAR )
ENCODING 41
SWIDTH 390 0
DWIDTH 13 0
BBX 13 25 0 -3
BITMAP
0000
0000
0000
0000
0000
1800
0C00
0E00
0600
0700
0300
0300
0300
0300
0700
0600
0E00
0C00
1800
0000
0000
0000
0000
0000
0000
ENDCHAR
STARTCHAR *
ENCODING 42
SWIDTH 390 0
DWIDTH 13 0
BBX 13 25 0 -3
BITMAP
0000
0000
0000
0000
0000
0000
0000
0600
0600
6660
76E0
1F80
0600
1F80
76E0
6660
0600
0600
0000
0000
0000
0000
0000
0000
0000
ENDCHAR
STARTCHAR +
ENCODING 43
SWIDTH 390 0
DWIDTH 13 0
BBX 13 25 0 -3
BITMAP
0000
0000
0000
0000
0000
0000
0000
0000
0600
0600
0600
0600
7FE0
7FE0
0600
0600
0600
0600
0000
0000
0000
0000
0000
0000
0000
ENDCHAR
STARTCHAR ,
ENCODING 44
SWIDTH 390 0
DWIDTH 13 0
BBX 13 25 0 -3
BITMAP
0000
0000
0000
0000
0000
0000
0000
0000
0000
0000
0000
0000
0000
0000
0000
0600
0F00
0F00
0300
0300
0600
0C00
0000
0000
0000
ENDCHAR
STARTCHAR -
ENCODING 45
SWIDTH 390 0
DWIDTH 13 0
BBX 13 25 0 -3
BITMAP
0000
0000
0000
0000
0000
0000
0000
0000
0000
0000
0000
0000
7FE0
7FE0
0000
0000
0000
0000
0000
0000
0000
0000
0000
0000
0000
ENDCHAR
STARTCHAR .
ENCODING 46
SWIDTH 390 0
DWIDTH 13 0
BBX 13 25 0 -3
BITMAP
0000
0000
0000
0000
0000
0000
0000
0000
0000
0000
0000
0000
0000
0000
0000
0600
0F00
0F00
0600
0000
0000
0000
0000
0000
0000
ENDCHAR
STARTCHAR /
ENCODING 47
SWIDTH 390 0
DWIDTH 13 0
BBX 13 25 0 -3
BITMAP
0000
0000
0000
0000
0000
00C0
00C0
0180
0180
0300
0300
0600
0600
0C00
0C00
1800
1800
3000
3000
0000
0000
0000
0000
0000
0000
ENDCHAR
STARTCHAR 0
ENCODING 48
SWIDTH 390 0
DWIDTH 13 0
BBX 13 25 0 -3
BITMAP
0000
0000
0000
0000
0000
0F00
1F80
39C0
30C0
31C0
33C0
36C0
3CC0
38C0
30C0
30C0
39C0
1F80
0F00
0000
0000
0000
0000
0000
0000
ENDCHAR
STARTCHAR 1
ENCODING 49
SWIDTH 390 0
DWIDTH 13 0
BBX 13 25 0 -3
BITMAP
0000
0000
0000
0000
0000
0600
0E00
1E00
3600
0600
0600
0600
0600
0600
0600
0600
0600
3FC0
3FC0
0000
0000
0000
0000
0000
0000
ENDCHAR
STARTCHAR 2
ENCODING 50
SWIDTH 390 0
DWIDTH 13 0
BBX 13 25 0 -3
BITMAP
0000
0000
0000
0000
0000
0F80
1FC0
30E0
3060
0060
00C0
0180
0300
0600
0C00
1800
3000
3FE0
3FE0
0000
0000
0000
0000
0000
0000
ENDCHAR
STARTCHAR 3
ENCODING 51
SWIDTH 390 0
DWIDTH 13 0
BBX 13 25 0 -3
BITMAP
0000
0000
0000
0000
0000
0F80
1FC0
30E0
3060
0060
00C0
0780
07C0
0060
0060
3060
30E0
1FC0
0F80
0000
0000
0000
0000
0000
0000
ENDCHAR
STARTCHAR 4
ENCODING 52
SWIDTH 390 0
DWIDTH 13 0
BBX 13 25 0 -3
BITMAP
0000
0000
0000
0000
0000
0300
0300
0600
0600
0D80
0D80
1980
1980
3180
3FE0
3FE0
0180
0180
0180
0000
0000
0000
0000
0000
0000
ENDCHAR
STARTCHAR 5
ENCODING 53
SWIDTH 390 0
DWIDTH 13 0
BBX 13 25 0 -3
BITMAP
0000
0000
0000
0000
0000
3FC0
3FC0
3000
3000
3000
3F80
3FC0
00E0
0060
0060
3060
30E0
1FC0
0F80
0000
0000
0000
0000
0000
0000
ENDCHAR
STARTCHAR 6
ENCODING 54
SWIDTH 390 0
DWIDTH 13 0
BBX 13 25 0 -3
BITMAP
0000
0000
0000
0000
0000
0F80
1FC0
3860
3060
3000
3780
3FC0
38E0
3060
3060
3060
38E0
1FC0
0F80
0000
0000
0000
0000
0000
0000
ENDCHAR
STARTCHAR 7
ENCODING 55
SWIDTH 390 0
DWIDTH 13 0
BBX 13 25 0 -3
BITMAP
0000
0000
0000
0000
0000
3FE0
3FE0
00C0
00C0
0180
0180
0300
0300
0600
0600
0C00
0C00
1800
1800
0000
0000
0000
0000
0000
0000
ENDCHAR
STARTCHAR 8
ENCODING 56
SWIDTH 390 0
DWIDTH 13 0
BBX 13 25 0 -3
BITMAP
0000
0000
0000
0000
0000
0F00
1F80
30C0
30C0
30C0
1F80
1F80
39C0
70E0
6060
6060
70E0
3FC0
1F80
0000
0000
0000
0000
0000
0000
ENDCHAR
STARTCHAR 9
ENCODING 57
SWIDTH 390 0
DWIDTH 13 0
BBX 13 25 0 -3
BITMAP
0000
0000
0000
0000
0000
0F80
1FC0
38E0
3060
3060
38E0
1FE0
0F60
0060
0060
3060
30E0
1FC0
0F80
0000
0000
0000
0000
0000
0000
ENDCHAR
STARTCHAR :
ENCODING 58
SWIDTH 390 0
DWIDTH 13 0
BBX 13 25 0 -3
BITMAP
0000
0000
0000
0000
0000
0000
0000
0000
0600
0F00
0F00
0600
0000
0000
0000
0600
0F00
0F00
0600
0000
0000
0000
0000
0000
0000
ENDCHAR
STARTCHAR ;
ENCODING 59
SWIDTH 390 0
DWIDTH 13 0
BBX 13 25 0 -3
BITMAP
0000
0000
0000
0000
0000
0000
0000
0000
0600
0F00
0F00
0600
0000
0000
0000
0600
0F00
0F00
0300
0300
0600
0C00
0000
0000
0000
ENDCHAR
STARTCHAR <
ENCODING 60
SWIDTH 390 0
DWIDTH 13 0
BBX 13 25 0 -3
BITMAP
0000
0000
0000
0000
0000
0000
0000
0000
0060
01C0
0700
1E00
7800
7800
1E00
0780
01C0
0060
0000
0000
0000
0000
0000
0000
0000
ENDCHAR
STARTCHAR =
ENCODING 61
SWIDTH 390 0
DWIDTH 13 0
BBX 13 25 0 -3
BITMAP
0000
0000
0000
0000
0000
0000
0000
0000
0000
0000
7FE0
7FE0
0000
0000
7FE0
7FE0
0000
0000
0000
0000
0000
0000
0000
0000
0000
ENDCHAR
STARTCHAR >
ENCODING 62
SWIDTH 390 0
DWIDTH 13 0
BBX 13 25 0 -3
BITMAP
0000
0000
0000
0000
0000
0000
0000
0000
6000
3800
0E00
0780
01E0
01E0
0780
0E00
3800
6000
0000
0000
0000
0000
0000
0000
0000
ENDCHAR
STARTCHAR ?
ENCODING 63
SWIDTH 390 0
DWIDTH 13 0
BBX 13 25 0 -3
BITMAP
0000
0000
0000
0000
0000
0F00
1F80
39C0
20C0
00C0
0180
0300
0600
0600
0600
0000
0000
0600
0F00
0600
0000
0000
0000
0000
0000
ENDCHAR
STARTCHAR @
ENCODING 64
SWIDTH 390 0
DWIDTH 13 0
BBX 13 25 0 -3
BITMAP
0000
0000
0000
0000
0000
0F80
1FC0
3860
3060
33E0
37E0
3660
3660
3660
37E0
33C0
3800
1FE0
0FE0
0000
0000
0000
0000
0000
0000
ENDCHAR
STARTCHAR A
ENCODING 65
SWIDTH 390 0
DWIDTH 13 0
BBX 13 25 0 -3
BITMAP
0000
0000
0000
0000
0000
0F80
1FC0
38E0
3060
3060
3060
3FE0
3FE0
3060
3060
3060
3060
3060
3060
0000
0000
0000
0000
0000
0000
ENDCHAR
STARTCHAR B
ENCODING 66
SWIDTH 390 0
DWIDTH 13 0
BBX 13 25 0 -3
BITMAP
0000
0000
0000
0000
0000
3F00
3F80
31C0
30C0
30C0
3180
3F80
3FC0
30C0
3060
3060
30E0
3FC0
3F80
0000
0000
0000
0000
0000
0000
ENDCHAR
STARTCHAR C
ENCODING 67
SWIDTH 390 0
DWIDTH 13 0
BBX 13 25 0 -3
BITMAP
0000
0000
0000
0000
0000
0F80
1FC0
38E0
3060
3000
3000
3000
3000
3000
3000
3060
38E0
1FC0
0F80
0000
0000
0000
0000
0000
0000
ENDCHAR
STARTCHAR D
ENCODING 68
SWIDTH 390 0
DWIDTH 13 0
BBX 13 25 0 -3
BITMAP
0000
0000
0000
0000
0000
3F80
3FC0
30E0
3060
3060
3060
3060
3060
3060
3060
3060
30E0
3FC0
3F80
0000
0000
0000
0000
0000
0000
ENDCHAR
STARTCHAR E
ENCODING 69
SWIDTH 390 0
DWIDTH 13 0
BBX 13 25 0 -3
BITMAP
0000
0000
0000
0000
0000
3FE0
3FE0
3000
3000
3000
3000
3F80
3F80
3000
3000
3000
3000
3FE0
3FE0
0000
0000
0000
0000
0000
0000
ENDCHAR
STARTCHAR F
ENCODING 70
SWIDTH 390 0
DWIDTH 13 0
BBX 13 25 0 -3
BITMAP
0000
0000
0000
0000
0000
3FE0
3FE0
3000
3000
3000
3000
3F80
3F80
3000
3000
3000
3000
3000
3000
0000
0000
0000
0000
0000
0000
ENDCHAR
STARTCHAR G
ENCODING 71
SWIDTH 390 0
DWIDTH 13 0
BBX 13 25 0 -3
BITMAP
0000
0000
0000
0000
0000
0F80
1FC0
38E0
3060
3000
3000
3000
31E0
31E0
3060
3060
38E0
1FC0
0F80
0000
0000
0000
0000
0000
0000
ENDCHAR
STARTCHAR H
ENCODING 72
SWIDTH 390 0
DWIDTH 13 0
BBX 13 25 0 -3
BITMAP
0000
0000
0000
0000
0000
3060
3060
3060
3060
3060
3060
3FE0
3FE0
3060
3060
3060
3060
3060
3060
0000
0000
0000
0000
0000
0000
ENDCHAR
STARTCHAR I
ENCODING 73
SWIDTH 390 0
DWIDTH 13 0
BBX 13 25 0 -3
BITMAP
0000
0000
0000
0000
0000
1F80
1F80
0600
0600
0600
0600
0600
0600
0600
0600
0600
0600
1F80
1F80
0000
0000
0000
0000
0000
0000
ENDCHAR
STARTCHAR J
ENCODING 74
SWIDTH 390 0
DWIDTH 13 0
BBX 13 25 0 -3
BITMAP
0000
0000
0000
0000
0000
0060
0060
0060
0060
0060
0060
0060
0060
0060
0060
3060
30E0
1FC0
0F80
0000
0000
0000
0000
0000
0000
ENDCHAR
STARTCHAR K
ENCODING 75
SWIDTH 390 0
DWIDTH 13 0
BBX 13 25 0 -3
BITMAP
0000
0000
0000
0000
0000
3060
30C0
3180
3300
3600
3C00
3800
3C00
3600
3300
3180
30C0
3060
3020
0000
0000
0000
0000
0000
0000
ENDCHAR
STARTCHAR L
ENCODING 76
SWIDTH 390 0
DWIDTH 13 0
BBX 13 25 0 -3
BITMAP
0000
0000
0000
0000
0000
3000
3000
3000
3000
3000
3000
3000
3000
3000
3000
3000
3000
3FE0
3FE0
0000
0000
0000
0000
0000
0000
ENDCHAR
STARTCHAR M
ENCODING 77
SWIDTH 390 0
DWIDTH 13 0
BBX 13 25 0 -3
BITMAP
0000
0000
0000
0000
0000
3060
38E0
38E0
3DE0
3FE0
3760
3760
3260
3060
3060
3060
3060
3060
3060
0000
0000
0000
0000
0000
0000
ENDCHAR
STARTCHAR N
ENCODING 78
SWIDTH 390 0
DWIDTH 13 0
BBX 13 25 0 -3
BITMAP
0000
0000
0000
0000
0000
3060
3860
3860
3C60
3C60
3660
3660
3360
3360
31E0
31E0
30E0
30E0
3060
0000
0000
0000
0000
0000
0000
ENDCHAR
STARTCHAR O
ENCODING 79
SWIDTH 390 0
DWIDTH 13 0
BBX 13 25 0 -3
BITMAP
0000
0000
0000
0000
0000
0F80
1FC0
38E0
3060
3060
3060
3060
3060
3060
3060
3060
38E0
1FC0
0F80
0000
0000
0000
0000
0000
0000
ENDCHAR
STARTCHAR P
ENCODING 80
SWIDTH 390 0
DWIDTH 13 0
BBX 13 25 0 -3
BITMAP
0000
0000
0000
0000
0000
3F80
3FC0
30E0
3060
3060
30E0
3FC0
3F80
3000
3000
3000
3000
3000
3000
0000
0000
0000
0000
0000
0000
ENDCHAR
STARTCHAR Q
ENCODING 81
SWIDTH 390 0
DWIDTH 13 0
BBX 13 25 0 -3
BITMAP
0000
0000
0000
0000
0000
0F80
1FC0
38E0
3060
3060
3060
3060
3060
3060
3060
31E0
39E0
1FC0
0FF0
0030
0000
0000
0000
0000
0000
ENDCHAR
STARTCHAR R
ENCODING 82
SWIDTH 390 0
DWIDTH 13 0
BBX 13 25 0 -3
BITMAP
0000
0000
0000
0000
0000
3F80
3FC0
30E0
3060
3060
30E0
3FC0
3F80
3180
3180
30C0
30C0
3060
3060
0000
0000
0000
0000
0000
0000
ENDCHAR
STARTCHAR S
ENCODING 83
SWIDTH 390 0
DWIDTH 13 0
BBX 13 25 0 -3
BITMAP
0000
0000
0000
0000
0000
0F80
1FC0
30E0
3060
3000
3800
1F80
0FC0
00E0
0060
3060
30E0
3FC0
1F80
0000
0000
0000
0000
0000
0000
ENDCHAR
STARTCHAR T
ENCODING 84
SWIDTH 390 0
DWIDTH 13 0
BBX 13 25 0 -3
BITMAP
0000
0000
0000
0000
0000
7FE0
7FE0
0600
0600
0600
0600
0600
0600
0600
0600
0600
0600
0600
0600
0000
0000
0000
0000
0000
0000
ENDCHAR
STARTCHAR U
ENCODING 85
SWIDTH 390 0
DWIDTH 13 0
BBX 13 25 0 -3
BITMAP
0000
0000
0000
0000
0000
3060
3060
3060
3060
3060
3060
3060
3060
3060
3060
3060
38E0
1FC0
0F80
0000
0000
0000
0000
0000
0000
ENDCHAR
STARTCHAR V
ENCODING 86
SWIDTH 390 0
DWIDTH 13 0
BBX 13 25 0 -3
BITMAP
0000
0000
0000
0000
0000
6060
6060
6060
30C0
30C0
30C0
1980
1980
1980
0900
0F00
0F00
0600
0600
0000
0000
0000
0000
0000
0000
ENDCHAR
STARTCHAR W
ENCODING 87
SWIDTH 390 0
DWIDTH 13 0
BBX 13 25 0 -3
BITMAP
0000
0000
0000
0000
0000
3060
3060
3060
3060
3060
3060
3260
3760
3760
3DE0
3DE0
38E0
38E0
3060
0000
0000
0000
0000
0000
0000
ENDCHAR
STARTCHAR X
ENCODING 88
SWIDTH 390 0
DWIDTH 13 0
BBX 13 25 0 -3
BITMAP
0000
0000
0000
0000
0000
3060
3060
18C0
18C0
0D80
0D80
0700
0700
0D80
0D80
18C0
18C0
3060
3060
0000
0000
0000
0000
0000
0000
ENDCHAR
STARTCHAR Y
ENCODING 89
SWIDTH 390 0
DWIDTH 13 0
BBX 13 25 0 -3
BITMAP
0000
0000
0000
0000
0000
6060
6060
30C0
30C0
1980
1F80
0F00
0600
0600
0600
0600
0600
0600
0600
0000
0000
0000
0000
0000
0000
ENDCHAR
STARTCHAR Z
ENCODING 90
SWIDTH 390 0
DWIDTH 13 0
BBX 13 25 0 -3
BITMAP
0000
0000
0000
0000
0000
7FE0
7FE0
0060
00E0
01C0
0380
0700
0E00
1C00
3800
7000
6000
7FE0
7FE0
0000
0000
0000
0000
0000
0000
ENDCHAR
STARTCHAR [
ENCODING 91
SWIDTH 390 0
DWIDTH 13 0
BBX 13 25 0 -3
BITMAP
0000
0000
0000
0000
0F80
0F80
0C00
0C00
0C00
0C00
0C00
0C00
0C00
0C00
0C00
0C00
0C00
0F80
0F80
0000
0000
0000
0000
0000
0000
ENDCHAR
STARTCHAR \
ENCODING 92
SWIDTH 390 0
DWIDTH 13 0
BBX 13 25 0 -3
BITMAP
0000
0000
0000
0000
0000
3000
3000
1800
1800
0C00
0C00
0600
0600
0300
0300
0180
0180
00C0
00C0
0000
0000
0000
0000
0000
0000
ENDCHAR
STARTCHAR ]
ENCODING 93
SWIDTH 390 0
DWIDTH 13 0
BBX 13 25 0 -3
BITMAP
0000
0000
0000
0000
1F00
1F00
0300
0300
0300
0300
0300
0300
0300
0300
0300
0300
0300
1F00
1F00
0000
0000
0000
0000
0000
0000
ENDCHAR
STARTCHAR ^
ENCODING 94
SWIDTH 390 0
DWIDTH 13 0
BBX 13 25 0 -3
BITMAP
0000
0000
0000
0000
0200
0700
0D80
18C0
3060
0000
0000
0000
0000
0000
0000
0000
0000
0000
0000
0000
0000
0000
0000
0000
0000
ENDCHAR
STARTCHAR _
ENCODING 95
SWIDTH 390 0
DWIDTH 13 0
BBX 13 25 0 -3
BITMAP
0000
0000
0000
0000
0000
0000
0000
0000
0000
0000
0000
0000
0000
0000
0000
0000
0000
0000
0000
0000
FFF0
FFF0
0000
0000
0000
ENDCHAR
STARTCHAR `
ENCODING 96
SWIDTH 390 0
DWIDTH 13 0
BBX 13 25 0 -3
BITMAP
0000
0000
0000
0300
0600
0C00
0C00
0F00
0F00
0600
0000
0000
0000
0000
0000
0000
0000
0000
0000
0000
0000
0000
0000
0000
0000
ENDCHAR
STARTCHAR A
ENCODING 97
SWIDTH 390 0
DWIDTH 13 0
BBX 13 25 0 -3
BITMAP
0000
0000
0000
0000
0000
0000
0000
0000
0780
0FC0
1860
0060
07E0
1FE0
3060
30E0
31E0
3F60
1E60
0000
0000
0000
0000
0000
0000
ENDCHAR
STARTCHAR B
ENCODING 98
SWIDTH 390 0
DWIDTH 13 0
BBX 13 25 0 -3
BITMAP
0000
0000
0000
0000
0000
3000
3000
3000
3000
3380
37C0
3CE0
3860
3060
3060
3860
3CE0
37C0
3380
0000
0000
0000
0000
0000
0000
ENDCHAR
STARTCHAR C
ENCODING 99
SWIDTH 390 0
DWIDTH 13 0
BBX 13 25 0 -3
BITMAP
0000
0000
0000
0000
0000
0000
0000
0000
0000
0FC0
1FC0
3860
3060
3000
3000
3000
3860
1FE0
0FC0
0000
0000
0000
0000
0000
0000
ENDCHAR
STARTCHAR D
ENCODING 100
SWIDTH 390 0
DWIDTH 13 0
BBX 13 25 0 -3
BITMAP
0000
0000
0000
0000
0000
0060
0060
0060
0060
0F60
1FE0
38E0
3060
3060
3060
30E0
31E0
1F60
0E60
0000
0000
0000
0000
0000
0000
ENDCHAR
STARTCHAR E
ENCODING 101
SWIDTH 390 0
DWIDTH 13 0
BBX 13 25 0 -3
BITMAP
0000
0000
0000
0000
0000
0000
0000
0000
0000
0F80
1FC0
3860
3060
3FE0
3FE0
3000
3060
1FE0
0FC0
0000
0000
0000
0000
0000
0000
ENDCHAR
STARTCHAR F
ENCODING 102
SWIDTH 390 0
DWIDTH 13 0
BBX 13 25 0 -3
BITMAP
0000
0000
0000
0000
0000
0380
0780
0600
0600
0600
1F80
1F80
0600
0600
0600
0600
0600
0600
0600
0000
0000
0000
0000
0000
0000
ENDCHAR
STARTCHAR G
ENCODING 103
SWIDTH 390 0
DWIDTH 13 0
BBX 13 25 0 -3
BITMAP
0000
0000
0000
0000
0000
0000
0000
0000
0000
0E60
1F60
39E0
30E0
3060
3060
3060
38E0
1FE0
0F60
0060
0060
0060
0FC0
0780
0000
ENDCHAR
STARTCHAR H
ENCODING 104
SWIDTH 390 0
DWIDTH 13 0
BBX 13 25 0 -3
BITMAP
0000
0000
0000
0000
0000
3000
3000
3000
3000
3380
37C0
3CE0
3860
3060
3060
3060
3060
3060
3060
0000
0000
0000
0000
0000
0000
ENDCHAR
STARTCHAR I
ENCODING 105
SWIDTH 390 0
DWIDTH 13 0
BBX 13 25 0 -3
BITMAP
0000
0000
0000
0000
0000
0600
0600
0000
0000
0600
0600
0600
0600
0600
0600
0600
0600
0600
0600
0000
0000
0000
0000
0000
0000
ENDCHAR
STARTCHAR J
ENCODING 106
SWIDTH 390 0
DWIDTH 13 0
BBX 13 25 0 -3
BITMAP
0000
0000
0000
0000
0000
0600
0600
0000
0000
0600
0600
0600
0600
0600
0600
0600
0600
0600
0600
0600
0600
3E00
3800
0000
0000
ENDCHAR
STARTCHAR K
ENCODING 107
SWIDTH 390 0
DWIDTH 13 0
BBX 13 25 0 -3
BITMAP
0000
0000
0000
0000
0000
0000
3000
3000
30C0
31C0
3380
3700
3E00
3C00
3E00
3700
3380
31C0
30C0
0000
0000
0000
0000
0000
0000
ENDCHAR
STARTCHAR L
ENCODING 108
SWIDTH 390 0
DWIDTH 13 0
BBX 13 25 0 -3
BITMAP
0000
0000
0000
0000
0000
0600
0600
0600
0600
0600
0600
0600
0600
0600
0600
0600
0600
0780
0380
0000
0000
0000
0000
0000
0000
ENDCHAR
STARTCHAR M
ENCODING 109
SWIDTH 390 0
DWIDTH 13 0
BBX 13 25 0 -3
BITMAP
0000
0000
0000
0000
0000
0000
0000
0000
6000
6DC0
7FE0
6660
6660
6660
6660
6660
6660
6660
6660
0000
0000
0000
0000
0000
0000
ENDCHAR
STARTCHAR N
ENCODING 110
SWIDTH 390 0
DWIDTH 13 0
BBX 13 25 0 -3
BITMAP
0000
0000
0000
0000
0000
0000
0000
0000
0000
3380
37C0
3C60
3860
3060
3060
3060
3060
3060
3060
0000
0000
0000
0000
0000
0000
ENDCHAR
STARTCHAR O
ENCODING 111
SWIDTH 390 0
DWIDTH 13 0
BBX 13 25 0 -3
BITMAP
0000
0000
0000
0000
0000
0000
0000
0000
0000
0F80
1FC0
38E0
3060
3060
3060
3060
38E0
1FC0
0F80
0000
0000
0000
0000
0000
0000
ENDCHAR
STARTCHAR P
ENCODING 112
SWIDTH 390 0
DWIDTH 13 0
BBX 13 25 0 -3
BITMAP
0000
0000
0000
0000
0000
0000
0000
0000
0000
3380
37C0
3CE0
3860
3060
3060
3860
3CE0
37C0
3380
3000
3000
3000
3000
0000
0000
ENDCHAR
STARTCHAR Q
ENCODING 113
SWIDTH 390 0
DWIDTH 13 0
BBX 13 25 0 -3
BITMAP
0000
0000
0000
0000
0000
0000
0000
0000
0000
0E60
1F60
39E0
30E0
3060
3060
30E0
39E0
1F60
0E60
0060
0060
0060
0060
0000
0000
ENDCHAR
STARTCHAR R
ENCODING 114
SWIDTH 390 0
DWIDTH 13 0
BBX 13 25 0 -3
BITMAP
0000
0000
0000
0000
0000
0000
0000
0000
0000
3380
37C0
3C60
3860
3000
3000
3000
3000
3000
3000
0000
0000
0000
0000
0000
0000
ENDCHAR
STARTCHAR S
ENCODING 115
SWIDTH 390 0
DWIDTH 13 0
BBX 13 25 0 -3
BITMAP
0000
0000
0000
0000
0000
0000
0000
0000
0000
1FC0
3FE0
3020
3000
1F80
0FC0
0060
3060
3FE0
1FC0
0000
0000
0000
0000
0000
0000
ENDCHAR
STARTCHAR T
ENCODING 116
SWIDTH 390 0
DWIDTH 13 0
BBX 13 25 0 -3
BITMAP
0000
0000
0000
0000
0000
0000
0600
0600
0600
1F80
1F80
0600
0600
0600
0600
0600
0600
0780
0380
0000
0000
0000
0000
0000
0000
ENDCHAR
STARTCHAR U
ENCODING 117
SWIDTH 390 0
DWIDTH 13 0
BBX 13 25 0 -3
BITMAP
0000
0000
0000
0000
0000
0000
0000
0000
0000
3060
3060
3060
3060
3060
3060
30E0
39E0
1F60
0E60
0000
0000
0000
0000
0000
0000
ENDCHAR
STARTCHAR V
ENCODING 118
SWIDTH 390 0
DWIDTH 13 0
BBX 13 25 0 -3
BITMAP
0000
0000
0000
0000
0000
0000
0000
0000
0000
6060
6060
30C0
30C0
1980
1980
0F00
0F00
0600
0600
0000
0000
0000
0000
0000
0000
ENDCHAR
STARTCHAR W
ENCODING 119
SWIDTH 390 0
DWIDTH 13 0
BBX 13 25 0 -3
BITMAP
0000
0000
0000
0000
0000
0000
0000
0000
0000
3060
3060
3060
3060
3260
3760
3760
3DE0
38E0
3060
0000
0000
0000
0000
0000
0000
ENDCHAR
STARTCHAR X
ENCODING 120
SWIDTH 390 0
DWIDTH 13 0
BBX 13 25 0 -3
BITMAP
0000
0000
0000
0000
0000
0000
0000
0000
0000
3060
3060
18C0
0D80
0700
0700
0D80
18C0
3060
3060
0000
0000
0000
0000
0000
0000
ENDCHAR
STARTCHAR Y
ENCODING 121
SWIDTH 390 0
DWIDTH 13 0
BBX 13 25 0 -3
BITMAP
0000
0000
0000
0000
0000
0000
0000
0000
0000
3060
3060
3060
3060
3060
3060
3060
30E0
1FE0
0F60
0060
0060
0060
1FC0
0F80
0000
ENDCHAR
STARTCHAR Z
ENCODING 122
SWIDTH 390 0
DWIDTH 13 0
BBX 13 25 0 -3
BITMAP
0000
0000
0000
0000
0000
0000
0000
0000
0000
3FE0
3FE0
00C0
0180
0300
0600
0C00
1800
3FE0
3FE0
0000
0000
0000
0000
0000
0000
ENDCHAR
STARTCHAR {
ENCODING 123
SWIDTH 390 0
DWIDTH 13 0
BBX 13 25 0 -3
BITMAP
0000
0000
0000
0000
0380
0600
0600
0600
0600
0600
0C00
1C00
0C00
0600
0600
0600
0600
0600
0380
0000
0000
0000
0000
0000
0000
ENDCHAR
STARTCHAR |
ENCODING 124
SWIDTH 390 0
DWIDTH 13 0
BBX 13 25 0 -3
BITMAP
0000
0600
0600
0600
0600
0600
0600
0600
0600
0600
0600
0600
0600
0600
0600
0600
0600
0600
0600
0600
0600
0600
0600
0000
0000
ENDCHAR
STARTCHAR }
ENCODING 125
SWIDTH 390 0
DWIDTH 13 0
BBX 13 25 0 -3
BITMAP
0000
0000
0000
0000
1C00
0600
0600
0600
0600
0600
0300
0380
0300
0600
0600
0600
0600
0600
1C00
0000
0000
0000
0000
0000
0000
ENDCHAR
STARTCHAR ~
ENCODING 126
SWIDTH 390 0
DWIDTH 13 0
BBX 13 25 0 -3
BITMAP
0000
0000
0000
0000
1C20
3E60
27E0
61C0
0000
0000
0000
0000
0000
0000
0000
0000
0000
0000
0000
0000
0000
0000
0000
0000
0000
ENDCHAR
STARTCHAR C040
ENCODING 154
SWIDTH 390 0
DWIDTH 13 0
BBX 13 25 0 -3
BITMAP
0000
0000
0000
0000
0000
0000
0000
0000
0000
0000
0000
0000
0000
0000
0000
0000
0000
0000
0000
0000
0000
0000
0000
0000
0000
ENDCHAR
STARTCHAR C243
ENCODING 163
SWIDTH 390 0
DWIDTH 13 0
BBX 13 25 0 -3
BITMAP
0000
0000
0000
0000
0000
18C0
18C0
0000
0000
0F80
1FC0
3860
3060
3FE0
3FE0
3000
3060
1FE0
0FC0
0000
0000
0000
0000
0000
0000
ENDCHAR
STARTCHAR C263
ENCODING 179
SWIDTH 390 0
DWIDTH 13 0
BBX 13 25 0 -3
BITMAP
0000
18C0
18C0
0000
0000
3FE0
3FE0
3000
3000
3000
3000
3F80
3F80
3000
3000
3000
3000
3FE0
3FE0
0000
0000
0000
0000
0000
0000
ENDCHAR
STARTCHAR copyright
ENCODING 191
SWIDTH 390 0
DWIDTH 13 0
BBX 13 25 0 -3
BITMAP
0000
0000
0000
0000
0000
0000
1FC0
2020
4010
CF18
D898
D818
D818
D818
D818
D818
D898
CF18
C018
4010
2020
1FC0
0000
0000
0000
ENDCHAR
STARTCHAR C300
ENCODING 192
SWIDTH 390 0
DWIDTH 13 0
BBX 13 25 0 -3
BITMAP
0000
0000
0000
0000
0000
0000
0000
0000
0000
63C0
67E0
6660
6660
7E60
7E60
6660
6660
67E0
63C0
0000
0000
0000
0000
0000
0000
ENDCHAR
STARTCHAR C301
ENCODING 193
SWIDTH 390 0
DWIDTH 13 0
BBX 13 25 0 -3
BITMAP
0000
0000
0000
0000
0000
0000
0000
0000
0000
0780
0FC0
1860
0060
07E0
1FE0
3060
30E0
3FE0
1F60
0000
0000
0000
0000
0000
0000
ENDCHAR
STARTCHAR C302
ENCODING 194
SWIDTH 390 0
DWIDTH 13 0
BBX 13 25 0 -3
BITMAP
0000
0000
0000
0000
0000
0FE0
1FE0
3800
3000
3F80
3FC0
38E0
3060
3060
3060
3060
38E0
1FC0
0F80
0000
0000
0000
0000
0000
0000
ENDCHAR
STARTCHAR C303
ENCODING 195
SWIDTH 390 0
DWIDTH 13 0
BBX 13 25 0 -3
BITMAP
0000
0000
0000
0000
0000
0000
0000
0000
0000
30C0
30C0
30C0
30C0
30C0
30C0
30C0
30C0
3FE0
3FE0
0060
0060
0040
0000
0000
0000
ENDCHAR
STARTCHAR C304
ENCODING 196
SWIDTH 390 0
DWIDTH 13 0
BBX 13 25 0 -3
BITMAP
0000
0000
0000
0000
0000
0000
0000
0000
0000
07C0
07C0
0CC0
0CC0
18C0
18C0
18C0
18C0
3FE0
3FE0
3060
0000
0000
0000
0000
0000
ENDCHAR
STARTCHAR C305
ENCODING 197
SWIDTH 390 0
DWIDTH 13 0
BBX 13 25 0 -3
BITMAP
0000
0000
0000
0000
0000
0000
0000
0000
0000
0F80
1FC0
3860
3060
3FE0
3FE0
3000
3060
1FE0
0FC0
0000
0000
0000
0000
0000
0000
ENDCHAR
STARTCHAR C306
ENCODING 198
SWIDTH 390 0
DWIDTH 13 0
BBX 13 25 0 -3
BITMAP
0000
0000
0000
0000
0000
0000
0000
0600
0600
0600
3FC0
7FE0
6660
6660
6660
6660
7FE0
3FC0
0600
0600
0600
0000
0000
0000
0000
ENDCHAR
STARTCHAR C307
ENCODING 199
SWIDTH 390 0
DWIDTH 13 0
BBX 13 25 0 -3
BITMAP
0000
0000
0000
0000
0000
0000
0000
0000
0000
3FE0
3FE0
3000
3000
3000
3000
3000
3000
3000
3000
0000
0000
0000
0000
0000
0000
ENDCHAR
STARTCHAR C310
ENCODING 200
SWIDTH 390 0
DWIDTH 13 0
BBX 13 25 0 -3
BITMAP
0000
0000
0000
0000
0000
0000
0000
0000
0000
3060
38E0
1DC0
0F80
0700
0700
0F80
1DC0
38E0
3060
0000
0000
0000
0000
0000
0000
ENDCHAR
STARTCHAR C311
ENCODING 201
SWIDTH 390 0
DWIDTH 13 0
BBX 13 25 0 -3
BITMAP
0000
0000
0000
0000
0000
0000
0000
0000
0000
3060
3060
30E0
31E0
3360
3660
3C60
3860
3060
3060
0000
0000
0000
0000
0000
0000
ENDCHAR
STARTCHAR C312
ENCODING 202
SWIDTH 390 0
DWIDTH 13 0
BBX 13 25 0 -3
BITMAP
0000
0000
0000
0000
18C0
18C0
0F80
0000
0000
3060
3060
30E0
31E0
3360
3660
3C60
3860
3060
3060
0000
0000
0000
0000
0000
0000
ENDCHAR
STARTCHAR C313
ENCODING 203
SWIDTH 390 0
DWIDTH 13 0
BBX 13 25 0 -3
BITMAP
0000
0000
0000
0000
0000
0000
0000
0000
0000
30E0
31E0
3380
3700
3E00
3F00
3380
31C0
30E0
3060
0000
0000
0000
0000
0000
0000
ENDCHAR
STARTCHAR C314
ENCODING 204
SWIDTH 390 0
DWIDTH 13 0
BBX 13 25 0 -3
BITMAP
0000
0000
0000
0000
0000
0000
0000
0000
0000
0FE0
0FE0
0C60
0C60
0C60
0C60
0C60
1860
1860
3060
0000
0000
0000
0000
0000
0000
ENDCHAR
STARTCHAR C315
ENCODING 205
SWIDTH 390 0
DWIDTH 13 0
BBX 13 25 0 -3
BITMAP
0000
0000
0000
0000
0000
0000
0000
0000
0000
3060
38E0
38E0
3DE0
3FE0
3760
3760
3260
3060
3060
0000
0000
0000
0000
0000
0000
ENDCHAR
STARTCHAR C316
ENCODING 206
SWIDTH 390 0
DWIDTH 13 0
BBX 13 25 0 -3
BITMAP
0000
0000
0000
0000
0000
0000
0000
0000
0000
3060
3060
3060
3060
3FE0
3FE0
3060
3060
3060
3060
0000
0000
0000
0000
0000
0000
ENDCHAR
STARTCHAR C317
ENCODING 207
SWIDTH 390 0
DWIDTH 13 0
BBX 13 25 0 -3
BITMAP
0000
0000
0000
0000
0000
0000
0000
0000
0000
0F80
1FC0
38E0
3060
3060
3060
3060
38E0
1FC0
0F80
0000
0000
0000
0000
0000
0000
ENDCHAR
STARTCHAR C320
ENCODING 208
SWIDTH 390 0
DWIDTH 13 0
BBX 13 25 0 -3
BITMAP
0000
0000
0000
0000
0000
0000
0000
0000
0000
3FE0
3FE0
3060
3060
3060
3060
3060
3060
3060
3060
0000
0000
0000
0000
0000
0000
ENDCHAR
STARTCHAR C321
ENCODING 209
SWIDTH 390 0
DWIDTH 13 0
BBX 13 25 0 -3
BITMAP
0000
0000
0000
0000
0000
0000
0000
0000
0000
0FE0
1FE0
3060
3060
1FE0
0FE0
0C60
1C60
3860
3060
0000
0000
0000
0000
0000
0000
ENDCHAR
STARTCHAR C322
ENCODING 210
SWIDTH 390 0
DWIDTH 13 0
BBX 13 25 0 -3
BITMAP
0000
0000
0000
0000
0000
0000
0000
0000
0000
3380
37C0
3CE0
3860
3060
3060
3860
3CE0
37C0
3380
3000
3000
3000
3000
0000
0000
ENDCHAR
STARTCHAR C323
ENCODING 211
SWIDTH 390 0
DWIDTH 13 0
BBX 13 25 0 -3
BITMAP
0000
0000
0000
0000
0000
0000
0000
0000
0000
07C0
1FC0
3860
3060
3000
3000
3000
3860
1FE0
0FC0
0000
0000
0000
0000
0000
0000
ENDCHAR
STARTCHAR C324
ENCODING 212
SWIDTH 390 0
DWIDTH 13 0
BBX 13 25 0 -3
BITMAP
0000
0000
0000
0000
0000
0000
0000
0000
0000
7FE0
7FE0
0600
0600
0600
0600
0600
0600
0600
0600
0000
0000
0000
0000
0000
0000
ENDCHAR
STARTCHAR C325
ENCODING 213
SWIDTH 390 0
DWIDTH 13 0
BBX 13 25 0 -3
BITMAP
0000
0000
0000
0000
0000
0000
0000
0000
0000
3060
3060
3060
38E0
18C0
1DC0
0D80
0F80
0700
0700
0600
0E00
0C00
1C00
1800
0000
ENDCHAR
STARTCHAR C326
ENCODING 214
SWIDTH 390 0
DWIDTH 13 0
BBX 13 25 0 -3
BITMAP
0000
0000
0000
0000
0000
0000
0000
0000
0000
6660
6660
36C0
36C0
1F80
1F80
36C0
36C0
6660
6660
0000
0000
0000
0000
0000
0000
ENDCHAR
STARTCHAR C327
ENCODING 215
SWIDTH 390 0
DWIDTH 13 0
BBX 13 25 0 -3
BITMAP
0000
0000
0000
0000
0000
0000
0000
0000
0000
3F00
3F80
30C0
30C0
3F80
3FC0
30E0
3060
3FC0
3F80
0000
0000
0000
0000
0000
0000
ENDCHAR
STARTCHAR C330
ENCODING 216
SWIDTH 390 0
DWIDTH 13 0
BBX 13 25 0 -3
BITMAP
0000
0000
0000
0000
0000
0000
0000
0000
0000
3000
3000
3000
3F00
3F80
30C0
30C0
30C0
3F80
3F00
0000
0000
0000
0000
0000
0000
ENDCHAR
STARTCHAR C331
ENCODING 217
SWIDTH 390 0
DWIDTH 13 0
BBX 13 25 0 -3
BITMAP
0000
0000
0000
0000
0000
0000
0000
0000
0000
3060
3060
3060
3E60
3F60
3360
3360
3360
3F60
3E60
0000
0000
0000
0000
0000
0000
ENDCHAR
STARTCHAR C332
ENCODING 218
SWIDTH 390 0
DWIDTH 13 0
BBX 13 25 0 -3
BITMAP
0000
0000
0000
0000
0000
0000
0000
0000
0000
0F80
1FC0
3060
0060
07C0
07C0
0060
3060
1FC0
0F80
0000
0000
0000
0000
0000
0000
ENDCHAR
STARTCHAR C333
ENCODING 219
SWIDTH 390 0
DWIDTH 13 0
BBX 13 25 0 -3
BITMAP
0000
0000
0000
0000
0000
0000
0000
0000
0000
6660
6660
6660
6660
6660
6660
6660
6660
7FE0
7FE0
0000
0000
0000
0000
0000
0000
ENDCHAR
STARTCHAR C334
ENCODING 220
SWIDTH 390 0
DWIDTH 13 0
BBX 13 25 0 -3
BITMAP
0000
0000
0000
0000
0000
0000
0000
0000
0000
0F80
1FC0
3060
0060
07E0
07E0
0060
3060
1FC0
0F80
0000
0000
0000
0000
0000
0000
ENDCHAR
STARTCHAR C335
ENCODING 221
SWIDTH 390 0
DWIDTH 13 0
BBX 13 25 0 -3
BITMAP
0000
0000
0000
0000
0000
0000
0000
0000
0000
6660
6660
6660
6660
6660
6660
6660
6660
7FF0
7FF0
0030
0030
0020
0000
0000
0000
ENDCHAR
STARTCHAR C336
ENCODING 222
SWIDTH 390 0
DWIDTH 13 0
BBX 13 25 0 -3
BITMAP
0000
0000
0000
0000
0000
0000
0000
0000
0000
3060
3060
3060
3060
38E0
1FE0
0F60
0060
0060
0060
0000
0000
0000
0000
0000
0000
ENDCHAR
STARTCHAR C337
ENCODING 223
SWIDTH 390 0
DWIDTH 13 0
BBX 13 25 0 -3
BITMAP
0000
0000
0000
0000
0000
0000
0000
0000
0000
3C00
3C00
0C00
0FC0
0FE0
0C60
0C60
0C60
0FE0
0FC0
0000
0000
0000
0000
0000
0000
ENDCHAR
STARTCHAR C340
ENCODING 224
SWIDTH 390 0
DWIDTH 13 0
BBX 13 25 0 -3
BITMAP
0000
0000
0000
0000
0000
6180
63C0
6660
6660
6660
6660
7E60
7E60
6660
6660
6660
6660
63C0
6180
0000
0000
0000
0000
0000
0000
ENDCHAR
STARTCHAR C341
ENCODING 225
SWIDTH 390 0
DWIDTH 13 0
BBX 13 25 0 -3
BITMAP
0000
0000
0000
0000
0000
0700
0700
0D80
0D80
18C0
18C0
3060
3060
3FE0
3FE0
3060
3060
3060
3060
0000
0000
0000
0000
0000
0000
ENDCHAR
STARTCHAR C342
ENCODING 226
SWIDTH 390 0
DWIDTH 13 0
BBX 13 25 0 -3
BITMAP
0000
0000
0000
0000
0000
3F80
3F80
3000
3000
3000
3000
3F80
3FC0
30E0
3060
3060
30E0
3FC0
3F80
0000
0000
0000
0000
0000
0000
ENDCHAR
STARTCHAR C343
ENCODING 227
SWIDTH 390 0
DWIDTH 13 0
BBX 13 25 0 -3
BITMAP
0000
0000
0000
0000
0000
30C0
30C0
30C0
30C0
30C0
30C0
30C0
30C0
30C0
30C0
30C0
30C0
3FE0
3FE0
0060
0060
0040
0000
0000
0000
ENDCHAR
STARTCHAR C344
ENCODING 228
SWIDTH 390 0
DWIDTH 13 0
BBX 13 25 0 -3
BITMAP
0000
0000
0000
0000
0000
07C0
0FC0
1CC0
18C0
18C0
18C0
18C0
18C0
18C0
18C0
18C0
30C0
7FE0
7FE0
6060
4020
0000
0000
0000
0000
ENDCHAR
STARTCHAR C345
ENCODING 229
SWIDTH 390 0
DWIDTH 13 0
BBX 13 25 0 -3
BITMAP
0000
0000
0000
0000
0000
3FE0
3FE0
3000
3000
3000
3000
3F80
3F80
3000
3000
3000
3000
3FE0
3FE0
0000
0000
0000
0000
0000
0000
ENDCHAR
STARTCHAR C346
ENCODING 230
SWIDTH 390 0
DWIDTH 13 0
BBX 13 25 0 -3
BITMAP
0000
0000
0000
0000
0600
0600
0600
1F80
3FC0
6660
6660
6660
6660
6660
6660
3FC0
1F80
0600
0600
0600
0000
0000
0000
0000
0000
ENDCHAR
STARTCHAR C347
ENCODING 231
SWIDTH 390 0
DWIDTH 13 0
BBX 13 25 0 -3
BITMAP
0000
0000
0000
0000
0000
3FE0
3FE0
3000
3000
3000
3000
3000
3000
3000
3000
3000
3000
3000
3000
0000
0000
0000
0000
0000
0000
ENDCHAR
STARTCHAR C350
ENCODING 232
SWIDTH 390 0
DWIDTH 13 0
BBX 13 25 0 -3
BITMAP
0000
0000
0000
0000
0000
3060
3060
18C0
18C0
0D80
0D80
0700
0700
0D80
0D80
18C0
18C0
3060
3060
0000
0000
0000
0000
0000
0000
ENDCHAR
STARTCHAR C351
ENCODING 233
SWIDTH 390 0
DWIDTH 13 0
BBX 13 25 0 -3
BITMAP
0000
0000
0000
0000
0000
3060
30E0
30E0
31E0
31E0
3360
3360
3660
3660
3C60
3C60
3860
3860
3060
0000
0000
0000
0000
0000
0000
ENDCHAR
STARTCHAR C352
ENCODING 234
SWIDTH 390 0
DWIDTH 13 0
BBX 13 25 0 -3
BITMAP
18C0
18C0
0F80
0000
0000
3060
30E0
30E0
31E0
31E0
3360
3360
3660
3660
3C60
3C60
3860
3860
3060
0000
0000
0000
0000
0000
0000
ENDCHAR
STARTCHAR C353
ENCODING 235
SWIDTH 390 0
DWIDTH 13 0
BBX 13 25 0 -3
BITMAP
0000
0000
0000
0000
0000
3060
30E0
3180
3180
3300
3300
3E00
3E00
3300
3180
3180
30C0
3060
3060
0000
0000
0000
0000
0000
0000
ENDCHAR
STARTCHAR C354
ENCODING 236
SWIDTH 390 0
DWIDTH 13 0
BBX 13 25 0 -3
BITMAP
0000
0000
0000
0000
0000
0FE0
0FE0
0C60
0C60
0C60
0C60
0C60
0C60
0C60
0C60
0C60
1860
3860
3060
0000
0000
0000
0000
0000
0000
ENDCHAR
STARTCHAR C355
ENCODING 237
SWIDTH 390 0
DWIDTH 13 0
BBX 13 25 0 -3
BITMAP
0000
0000
0000
0000
0000
3060
38E0
38E0
3DE0
3FE0
3760
3760
3260
3060
3060
3060
3060
3060
3060
0000
0000
0000
0000
0000
0000
ENDCHAR
STARTCHAR C356
ENCODING 238
SWIDTH 390 0
DWIDTH 13 0
BBX 13 25 0 -3
BITMAP
0000
0000
0000
0000
0000
3060
3060
3060
3060
3060
3060
3FE0
3FE0
3060
3060
3060
3060
3060
3060
0000
0000
0000
0000
0000
0000
ENDCHAR
STARTCHAR C357
ENCODING 239
SWIDTH 390 0
DWIDTH 13 0
BBX 13 25 0 -3
BITMAP
0000
0000
0000
0000
0000
0F80
1FC0
38E0
3060
3060
3060
3060
3060
3060
3060
3060
38E0
1FC0
0F80
0000
0000
0000
0000
0000
0000
ENDCHAR
STARTCHAR C360
ENCODING 240
SWIDTH 390 0
DWIDTH 13 0
BBX 13 25 0 -3
BITMAP
0000
0000
0000
0000
0000
3FE0
3FE0
3060
3060
3060
3060
3060
3060
3060
3060
3060
3060
3060
3060
0000
0000
0000
0000
0000
0000
ENDCHAR
STARTCHAR C361
ENCODING 241
SWIDTH 390 0
DWIDTH 13 0
BBX 13 25 0 -3
BITMAP
0000
0000
0000
0000
0000
0FE0
1FE0
3860
3060
3060
3860
1FE0
0FE0
0C60
0C60
1860
1860
3060
3060
0000
0000
0000
0000
0000
0000
ENDCHAR
STARTCHAR C362
ENCODING 242
SWIDTH 390 0
DWIDTH 13 0
BBX 13 25 0 -3
BITMAP
0000
0000
0000
0000
0000
3F80
3FC0
30E0
3060
3060
3060
30E0
3FC0
3F80
3000
3000
3000
3000
3000
0000
0000
0000
0000
0000
0000
ENDCHAR
STARTCHAR C363
ENCODING 243
SWIDTH 390 0
DWIDTH 13 0
BBX 13 25 0 -3
BITMAP
0000
0000
0000
0000
0000
0F80
1FC0
38E0
3060
3000
3000
3000
3000
3000
3000
3060
38E0
1FC0
0F80
0000
0000
0000
0000
0000
0000
ENDCHAR
STARTCHAR C364
ENCODING 244
SWIDTH 390 0
DWIDTH 13 0
BBX 13 25 0 -3
BITMAP
0000
0000
0000
0000
0000
7FE0
7FE0
0600
0600
0600
0600
0600
0600
0600
0600
0600
0600
0600
0600
0000
0000
0000
0000
0000
0000
ENDCHAR
STARTCHAR C365
ENCODING 245
SWIDTH 390 0
DWIDTH 13 0
BBX 13 25 0 -3
BITMAP
0000
0000
0000
0000
0000
3060
3060
3060
38E0
18C0
1DC0
0D80
0F80
0700
0700
0600
0E00
3C00
3800
0000
0000
0000
0000
0000
0000
ENDCHAR
STARTCHAR C366
ENCODING 246
SWIDTH 390 0
DWIDTH 13 0
BBX 13 25 0 -3
BITMAP
0000
0000
0000
0000
0000
6660
6660
36C0
36C0
36C0
1F80
1F80
0F00
1F80
1F80
36C0
36C0
6660
6660
0000
0000
0000
0000
0000
0000
ENDCHAR
STARTCHAR C367
ENCODING 247
SWIDTH 390 0
DWIDTH 13 0
BBX 13 25 0 -3
BITMAP
0000
0000
0000
0000
0000
3F00
3F80
31C0
30C0
30C0
31C0
3F80
3FC0
30C0
3060
3060
30E0
3FC0
3F80
0000
0000
0000
0000
0000
0000
ENDCHAR
STARTCHAR C370
ENCODING 248
SWIDTH 390 0
DWIDTH 13 0
BBX 13 25 0 -3
BITMAP
0000
0000
0000
0000
0000
3000
3000
3000
3000
3000
3F00
3F80
31C0
30C0
30C0
30C0
31C0
3F80
3F00
0000
0000
0000
0000
0000
0000
ENDCHAR
STARTCHAR C371
ENCODING 249
SWIDTH 390 0
DWIDTH 13 0
BBX 13 25 0 -3
BITMAP
0000
0000
0000
0000
0000
3060
3060
3060
3060
3060
3E60
3F60
3360
3360
3360
3360
3360
3F60
3E60
0000
0000
0000
0000
0000
0000
ENDCHAR
STARTCHAR C372
ENCODING 250
SWIDTH 390 0
DWIDTH 13 0
BBX 13 25 0 -3
BITMAP
0000
0000
0000
0000
0000
0F80
1FC0
3060
3060
0060
00C0
0780
0780
00C0
0060
3060
3060
1FC0
0F80
0000
0000
0000
0000
0000
0000
ENDCHAR
STARTCHAR C373
ENCODING 251
SWIDTH 390 0
DWIDTH 13 0
BBX 13 25 0 -3
BITMAP
0000
0000
0000
0000
0000
6660
6660
6660
6660
6660
6660
6660
6660
6660
6660
6660
6660
7FE0
7FE0
0000
0000
0000
0000
0000
0000
ENDCHAR
STARTCHAR C374
ENCODING 252
SWIDTH 390 0
DWIDTH 13 0
BBX 13 25 0 -3
BITMAP
0000
0000
0000
0000
0000
0F00
3FC0
30C0
0060
0060
0060
0FE0
0FE0
0060
0060
0060
30C0
3FC0
0F00
0000
0000
0000
0000
0000
0000
ENDCHAR
STARTCHAR C365
ENCODING 253
SWIDTH 390 0
DWIDTH 13 0
BBX 13 25 0 -3
BITMAP
0000
0000
0000
0000
0000
6660
6660
6660
6660
6660
6660
6660
6660
6660
6660
6660
6660
7FF0
7FF0
0030
0030
0020
0000
0000
0000
ENDCHAR
STARTCHAR C376
ENCODING 254
SWIDTH 390 0
DWIDTH 13 0
BBX 13 25 0 -3
BITMAP
0000
0000
0000
0000
0000
3060
3060
3060
3060
3060
3060
3860
1FE0
0FE0
0060
0060
0060
0060
0060
0000
0000
0000
0000
0000
0000
ENDCHAR
STARTCHAR C377
ENCODING 255
SWIDTH 390 0
DWIDTH 13 0
BBX 13 25 0 -3
BITMAP
0000
0000
0000
0000
0000
7800
7800
1800
1800
1800
1F80
1FC0
18E0
1860
1860
1860
18E0
1FC0
1F80
0000
0000
0000
0000
0000
0000
ENDCHAR
ENDFONT
